<svg width="50" height="50" viewBox="0 0 50 50" fill="none" xmlns="http://www.w3.org/2000/svg">
<path d="M37.0898 41.6663L41.2355 41.6663C42.1364 41.6663 42.5872 41.6663 42.9658 41.5117C43.3 41.3752 43.5941 41.1533 43.8171 40.8695C44.0699 40.5478 44.1941 40.1153 44.4417 39.2487L46.7036 31.3321C47.1158 29.8896 47.3207 29.1683 47.1589 28.5977C47.0171 28.0978 46.694 27.6691 46.2524 27.3954C45.7774 27.1011 45.0834 27.0841 43.7505 27.0831M37.0898 41.6663H12.9102M37.0898 41.6663C39.4188 41.6663 40.5833 41.6663 41.4737 41.2126C42.2577 40.8132 42.8968 40.1749 43.2963 39.3909C43.7504 38.4996 43.7505 37.3328 43.7505 34.9993V27.0831M12.9102 41.6663H10.6689C9.16984 41.6663 8.41823 41.6663 7.91423 41.354C7.47257 41.0804 7.14883 40.6515 7.00703 40.1516C6.97716 40.0463 6.95985 39.9359 6.95408 39.8167M12.9102 41.6663C10.5812 41.6663 9.415 41.6663 8.52458 41.2126C7.888 40.8883 7.34836 40.4062 6.95408 39.8167M43.7505 27.0831C43.6684 27.083 43.584 27.083 43.497 27.083H10.4172L7.4646 37.4173L7.46033 37.4317C7.12674 38.5993 6.9287 39.2924 6.95408 39.8167M43.7505 27.0831L43.7504 19.1659C43.7504 16.8323 43.7504 15.6656 43.2963 14.7743C42.8968 13.9902 42.2582 13.3533 41.4741 12.9538C40.5828 12.4997 39.4169 12.4997 37.0833 12.4997H25M6.95408 39.8167C6.86277 39.6802 6.77926 39.5379 6.70414 39.3905C6.25 38.4992 6.25 37.3332 6.25 34.9997V12.4997M6.25 12.4997H25M6.25 12.4997C6.25 10.1985 8.11548 8.33301 10.4167 8.33301H18.0719C19.091 8.33301 19.6018 8.33301 20.0813 8.44813C20.5065 8.5502 20.9122 8.71898 21.285 8.94743C21.7053 9.20502 22.0663 9.56596 22.7865 10.2861L25 12.4997" stroke="#5BC4CB" stroke-width="2" stroke-linecap="round" stroke-linejoin="round"/>
</svg>
