<svg width="177" height="60" viewBox="0 0 177 60" fill="none" xmlns="http://www.w3.org/2000/svg">
<path fill-rule="evenodd" clip-rule="evenodd" d="M1.0449 35.944C4.22285 35.944 7.4008 35.944 10.5788 35.944C10.7684 33.6597 11.5825 32.9024 12.951 33.3989C14.152 33.3597 14.7635 33.7838 14.7861 34.6715C15.2795 34.6715 15.7726 34.6715 16.266 34.6715C16.434 32.1636 17.2983 31.1124 18.8593 31.5177C19.8165 30.9999 20.5326 31.2765 21.0078 32.3477C21.9981 32.2441 22.2886 33.552 22.261 35.5013C20.5297 35.5013 18.7985 35.5013 17.0671 35.5013C17.1424 35.6306 17.2175 35.8317 17.2927 35.9608C19.7396 35.9608 22.1864 35.9608 24.6332 35.9608C24.6332 35.2785 24.6332 34.524 24.6332 33.8416C24.3047 33.8416 23.9762 33.8416 23.6476 33.8416C22.8615 33.3094 22.3599 32.4459 22.4849 30.8538C22.2949 28.3563 23.3061 27.6825 24.9914 28.032C26.074 27.3736 27.0228 27.5017 27.6769 29.36C30.1648 29.2061 29.7799 36.0519 26.737 35.1694C26.737 35.3908 26.737 35.6533 26.737 35.8746C28.4232 35.8746 30.1094 35.8746 31.7957 35.8746C31.7957 34.2517 31.7957 32.5875 31.7957 30.9645C33.9737 28.9542 36.1517 26.9439 38.3299 24.9336C40.8065 25.9664 43.2832 26.9992 45.76 28.032C45.7749 26.9439 45.7897 25.8558 45.8047 24.7678C46.1658 22.3526 45.2228 20.8021 43.3877 19.8434C40.9613 20.4927 40.2073 22.1974 40.2992 24.4357C40.1053 24.4727 39.9113 24.5095 39.7173 24.5464C39.3454 21.6252 40.7104 19.9299 43.6063 19.0613C45.8169 20.4864 46.792 22.3384 46.4314 24.823C46.4314 25.9667 46.4314 27.1721 46.4314 28.3156L51.4444 30.4409C51.4444 32.5623 51.4444 34.4876 51.4444 36.609C46.267 36.609 41.0896 36.609 35.9122 36.609C35.9122 34.5054 35.9122 32.5255 35.9122 30.422C37.7038 30.422 39.4952 30.422 41.287 30.422C41.287 31.6584 41.287 32.7712 41.287 34.0076C42.8078 34.0076 44.2703 34.0076 45.7911 34.0076C45.7911 32.2731 45.7911 30.5385 45.7911 28.8039C43.3293 27.7905 40.9259 26.7771 38.4641 25.7636C36.4349 27.6263 34.4058 29.4891 32.3767 31.3518C32.3767 33.1223 32.3767 34.893 32.3767 36.6636C30.2725 36.6636 28.1683 36.6636 26.0642 36.6636C26.0642 35.8143 26.0642 34.9651 26.0642 34.1157C28.8571 36.1156 29.8381 29.7982 27.2742 29.9685C26.7599 28.2408 25.9701 28.2157 25.0809 28.8067C23.2122 28.0929 22.9778 29.192 23.201 30.7985C22.9249 32.2046 23.3622 33.3913 24.6332 33.0669C24.6332 32.4572 24.6332 31.8475 24.6332 31.2377C25.2466 31.2377 25.86 31.2377 26.4735 31.2377C26.4735 32.1059 26.4735 32.9739 26.4735 33.842C26.0686 33.842 25.6639 33.842 25.2591 33.842C25.2591 34.7827 25.2591 35.7233 25.2591 36.6638C22.4989 36.6638 19.7389 36.6638 16.9788 36.6638C16.7999 36.2578 16.6211 35.852 16.4422 35.446C15.741 35.446 15.0398 35.446 14.3385 35.446C14.2742 34.7161 14.0819 34.0947 12.9958 34.2289C11.4243 33.4202 11.2172 34.8797 11.2053 36.6633H1L1.0449 35.944ZM36.5122 31.1956H40.7109V34.7465H46.4557V29.1346L50.9754 31.0465V35.8148H36.512L36.5122 31.1956ZM25.2814 32.0373H25.8041V33.0709H25.2814V32.0373ZM16.9545 34.6643C18.5223 34.6643 20.0902 34.6643 21.6581 34.6643C21.7001 33.6067 21.6082 32.7654 20.578 33.437C20.3428 31.8076 19.7503 31.6497 18.9579 32.3171C17.532 31.7751 17.0326 32.852 16.9545 34.6643Z" fill="#CAA44D" stroke="#CAA44D" stroke-width="0.3" stroke-miterlimit="22.9256"/>
<path fill-rule="evenodd" clip-rule="evenodd" d="M166.047 35.9883C169.365 35.9883 172.682 35.9883 176 35.9883C176 36.2577 176 36.5273 176 36.7968C172.649 36.7968 169.298 36.7968 165.947 36.7968C165.645 36.3822 165.344 35.9675 165.042 35.5528C164.221 35.5528 163.4 35.5528 162.579 35.5528C162.579 35.9267 162.579 36.3003 162.579 36.6743C160.35 36.6743 158.122 36.6743 155.894 36.6743C155.894 34.9526 155.894 33.2309 155.894 31.5092C154.805 31.1566 153.716 30.8041 152.627 30.4516C152.107 30.7627 151.588 31.0737 151.069 31.3848C151.069 32.2768 151.069 33.1686 151.069 34.0604C150.418 34.0604 149.768 34.0604 149.118 34.0604C149.118 34.7067 149.118 35.3529 149.118 35.9991C150.451 36.011 151.784 36.0228 153.117 36.0347C153.208 35.3465 153.383 34.718 154.153 34.5041C153.99 33.2784 153.578 33.053 152.916 33.828C152.675 34.8452 152.16 35.3549 151.507 35.6076C151.411 35.3703 151.315 35.1329 151.219 34.8957C151.827 34.6338 152.322 34.2477 152.341 33.3296C153.852 32.0022 154.625 32.7286 154.843 35.0025C153.41 35.3798 153.762 36.0721 154.009 36.7464C152.187 36.7464 150.366 36.7464 148.544 36.7464C148.544 35.8092 148.544 34.8719 148.544 33.9346C147.212 33.9346 145.879 33.9346 144.547 33.9346C144.547 34.8838 144.547 35.8331 144.547 36.7822C143.78 36.7822 143.012 36.7822 142.245 36.7822C142.245 35.8442 142.245 34.9063 142.245 33.9682C141.229 33.9682 140.213 33.9682 139.198 33.9682C139.198 34.9063 139.198 35.8442 139.198 36.7822C138.393 36.7822 137.587 36.7822 136.782 36.7822C136.782 34.5162 136.782 32.2501 136.782 29.984C136.466 29.984 136.149 29.984 135.833 29.984C135.833 32.2501 135.833 34.5162 135.833 36.7823C134.931 36.7823 134.029 36.7823 133.127 36.7823C133.127 35.2988 133.127 33.8153 133.127 32.3319C132.897 32.3319 132.667 32.3319 132.437 32.3319C132.437 33.8035 132.437 35.275 132.437 36.7464C131.919 36.7464 131.402 36.7464 130.884 36.7464C130.884 35.2991 130.884 33.8516 130.884 32.4043C130.751 32.4043 130.617 32.4043 130.484 32.4043C130.484 33.84 130.484 35.2757 130.484 36.7116C129.985 36.7116 129.486 36.7116 128.987 36.7116C128.987 35.1684 128.987 33.625 128.987 32.0818C128.853 32.0818 128.719 32.0818 128.585 32.0818C128.585 33.696 128.585 35.3103 128.585 36.9245C127.828 36.8178 127.071 36.7108 126.314 36.6041C126.314 34.3855 126.314 32.167 126.314 29.9484C125.806 29.9484 125.298 29.9484 124.789 29.9484C124.789 30.6129 124.789 31.2775 124.789 31.9419C124.109 32.1554 123.428 32.3689 122.748 32.5823C122.748 33.9349 122.748 35.2875 122.748 36.64C122.517 36.64 122.286 36.64 122.055 36.64C122.055 35.085 122.055 33.53 122.055 31.9748C122.756 31.7977 123.456 31.6205 124.157 31.4432C124.157 30.7076 124.157 29.9722 124.157 29.2366C124.886 29.2366 125.615 29.2366 126.343 29.2366C126.343 28.8687 126.343 28.5007 126.343 28.1327C125.059 28.7143 123.774 29.2957 122.489 29.8772C122.403 29.6992 122.317 29.5213 122.23 29.3434C123.601 28.7382 124.972 28.1333 126.343 27.5281C126.343 26.7889 126.343 26.0495 126.343 25.3101C129.51 25.3101 132.677 25.3101 135.844 25.3101C135.844 26.0454 135.844 26.7806 135.844 27.5158C136.169 27.6369 136.493 27.758 136.817 27.8793C136.817 26.2053 136.817 24.5313 136.817 22.8575C137.998 22.4182 139.18 21.9788 140.361 21.5396C141.083 21.9562 141.805 22.3727 142.527 22.7894C142.527 23.9558 142.527 25.1222 142.527 26.2887C143.201 26.4856 143.874 26.6824 144.547 26.8795C144.547 28.008 144.547 29.1366 144.547 30.2651C145.024 30.091 145.502 29.9167 145.979 29.7426C147.032 30.1744 148.084 30.606 149.137 31.0378C149.137 31.7725 149.137 32.5073 149.137 33.2418C149.572 33.2418 150.006 33.2418 150.441 33.2418C150.441 32.5297 150.441 31.8175 150.441 31.1053C151.187 30.6436 151.934 30.1817 152.681 29.7197C153.947 30.144 155.214 30.5682 156.481 30.9923C156.481 32.6738 156.481 34.3554 156.481 36.0368C158.317 36.0368 160.153 36.0368 161.989 36.0368C161.989 35.9079 161.989 35.7789 161.989 35.6499C160.961 35.6499 159.933 35.6499 158.904 35.6499C157.725 34.8514 157.66 32.4573 158.721 31.8785C158.08 30.1191 159.483 28.0123 160.704 28.9699C161.201 28.004 161.856 27.845 162.669 28.4928C163.847 28.5149 164.236 29.4451 164.266 30.7878C164.836 31.4412 165.05 32.388 164.909 33.628C164.003 33.4784 163.611 33.8419 163.733 34.7189C163.36 34.7189 162.987 34.7189 162.613 34.7189C162.613 34.7949 162.613 34.8712 162.613 34.9472C163.385 34.9472 164.156 34.9472 164.927 34.9472C164.947 34.6439 165.027 34.3407 165.166 34.0372C165.081 32.9455 165.311 32.1787 166.414 32.3102C166.957 31.4578 167.549 31.171 168.25 32.1285C169.359 32.2789 169.434 32.9676 169.04 33.9008C169.465 34.6139 169.416 35.2047 168.893 35.6732C167.883 35.6732 166.873 35.6732 165.863 35.6732C165.925 35.7782 165.986 35.8832 166.047 35.9883ZM168.704 34.9513C167.643 34.9513 166.582 34.9513 165.521 34.9513C165.565 34.6324 165.639 34.3173 165.819 34.0148C165.512 33.0667 165.981 32.9275 166.777 33.1281C167.026 32.1644 167.421 32.0381 167.993 32.9221C168.772 32.6496 168.844 32.993 168.21 33.9523C168.57 34.1706 168.84 34.4374 168.674 34.939L168.704 34.9513ZM160.846 34.7297C161.235 34.7297 161.623 34.7297 162.011 34.7297C162.011 34.8107 162.011 34.8915 162.011 34.9724C161.03 34.9724 160.05 34.9724 159.069 34.9724C158.218 34.0604 158.356 32.496 159.63 32.2705C158.45 30.511 159.661 28.3621 161.025 30.2844C161.217 29.0656 161.646 28.5218 162.496 29.1809C163.129 29.1735 163.719 29.2591 163.575 30.9463C164.06 31.4123 164.306 32.0744 164.315 32.9326C163.708 33.037 163.276 33.3574 163.099 33.9941C162.932 33.9941 162.765 33.9941 162.598 33.9941C162.598 33.0832 162.598 32.1723 162.598 31.2614C162.011 31.2614 161.424 31.2614 160.837 31.2614C160.84 32.4176 160.843 33.5737 160.846 34.7297ZM161.458 32.0184H162.028V33.9941H161.458V32.0184ZM142.868 33.9857H143.978V36.1107H142.868V33.9857ZM142.868 31.6042L143.978 31.1611V33.2448H142.868V31.6042ZM144.515 31.0477L145.994 30.5029L148.539 31.5629V33.2448H144.515V31.0477ZM142.285 30.9799V33.2196H138.618V36.0347H137.364V29.9888H141.212C139.984 29.2721 138.716 28.639 137.417 28.068V23.3296L140.299 22.3191L141.901 23.3101V26.8775L143.95 27.4522L143.918 30.3655L142.285 30.9799ZM137.43 29.2661V28.8606L138.253 29.2551L137.43 29.2661ZM126.957 26.0732H135.207V27.2822C132.487 26.6432 129.741 26.5679 126.957 27.2822V26.0732ZM126.957 28.0227C129.642 27.3557 132.393 27.3762 135.207 28.0227V29.2317H126.957C126.957 28.8287 126.957 28.4257 126.957 28.0227ZM135.834 29.2236V28.2225L136.799 28.6264V29.2088L135.834 29.2236ZM135.203 35.9786V29.9749H126.986V36.0231H127.992V31.4084H129.678V35.9925H129.924V31.5608H131.536V35.9316H131.845V31.5454L133.751 31.6523V35.9774L135.203 35.9786Z" fill="#CAA44D"/>
<path d="M168.704 34.9513C167.643 34.9513 166.582 34.9513 165.521 34.9513C165.565 34.6324 165.639 34.3173 165.819 34.0148C165.512 33.0667 165.981 32.9275 166.777 33.1281C167.026 32.1644 167.421 32.0381 167.993 32.9221C168.772 32.6496 168.844 32.993 168.21 33.9523C168.57 34.1706 168.84 34.4374 168.674 34.939M166.047 35.9883C169.365 35.9883 172.682 35.9883 176 35.9883C176 36.2577 176 36.5273 176 36.7968C172.649 36.7968 169.298 36.7968 165.947 36.7968C165.645 36.3822 165.344 35.9675 165.042 35.5528C164.221 35.5528 163.4 35.5528 162.579 35.5528C162.579 35.9267 162.579 36.3003 162.579 36.6743C160.35 36.6743 158.122 36.6743 155.894 36.6743C155.894 34.9526 155.894 33.2309 155.894 31.5092C154.805 31.1566 153.716 30.8041 152.627 30.4516C152.107 30.7627 151.588 31.0737 151.069 31.3848C151.069 32.2768 151.069 33.1686 151.069 34.0604C150.418 34.0604 149.768 34.0604 149.118 34.0604C149.118 34.7067 149.118 35.3529 149.118 35.9991C150.451 36.011 151.784 36.0228 153.117 36.0347C153.208 35.3465 153.383 34.718 154.153 34.5041C153.99 33.2784 153.578 33.053 152.916 33.828C152.675 34.8452 152.16 35.3549 151.507 35.6076C151.411 35.3703 151.315 35.1329 151.219 34.8957C151.827 34.6338 152.322 34.2477 152.341 33.3296C153.852 32.0022 154.625 32.7286 154.843 35.0025C153.41 35.3798 153.762 36.0721 154.009 36.7464C152.187 36.7464 150.366 36.7464 148.544 36.7464C148.544 35.8092 148.544 34.8719 148.544 33.9346C147.212 33.9346 145.879 33.9346 144.547 33.9346C144.547 34.8838 144.547 35.8331 144.547 36.7822C143.78 36.7822 143.012 36.7822 142.245 36.7822C142.245 35.8442 142.245 34.9063 142.245 33.9682C141.229 33.9682 140.213 33.9682 139.198 33.9682C139.198 34.9063 139.198 35.8442 139.198 36.7822C138.393 36.7822 137.587 36.7822 136.782 36.7822C136.782 34.5162 136.782 32.2501 136.782 29.984C136.466 29.984 136.149 29.984 135.833 29.984C135.833 32.2501 135.833 34.5162 135.833 36.7823C134.931 36.7823 134.029 36.7823 133.127 36.7823C133.127 35.2988 133.127 33.8153 133.127 32.3319C132.897 32.3319 132.667 32.3319 132.437 32.3319C132.437 33.8035 132.437 35.275 132.437 36.7464C131.919 36.7464 131.402 36.7464 130.884 36.7464C130.884 35.2991 130.884 33.8516 130.884 32.4043C130.751 32.4043 130.617 32.4043 130.484 32.4043C130.484 33.84 130.484 35.2757 130.484 36.7116C129.985 36.7116 129.486 36.7116 128.987 36.7116C128.987 35.1684 128.987 33.625 128.987 32.0818C128.853 32.0818 128.719 32.0818 128.585 32.0818C128.585 33.696 128.585 35.3103 128.585 36.9245C127.828 36.8178 127.071 36.7108 126.314 36.6041C126.314 34.3855 126.314 32.167 126.314 29.9484C125.806 29.9484 125.298 29.9484 124.789 29.9484C124.789 30.6129 124.789 31.2775 124.789 31.9419C124.109 32.1554 123.428 32.3689 122.748 32.5823C122.748 33.9349 122.748 35.2875 122.748 36.64C122.517 36.64 122.286 36.64 122.055 36.64C122.055 35.085 122.055 33.53 122.055 31.9748C122.756 31.7977 123.456 31.6205 124.157 31.4432C124.157 30.7076 124.157 29.9722 124.157 29.2366C124.886 29.2366 125.615 29.2366 126.343 29.2366C126.343 28.8687 126.343 28.5007 126.343 28.1327C125.059 28.7143 123.774 29.2957 122.489 29.8772C122.403 29.6992 122.317 29.5213 122.23 29.3434C123.601 28.7382 124.972 28.1333 126.343 27.5281C126.343 26.7889 126.343 26.0495 126.343 25.3101C129.51 25.3101 132.677 25.3101 135.844 25.3101C135.844 26.0454 135.844 26.7806 135.844 27.5158C136.169 27.6369 136.493 27.758 136.817 27.8793C136.817 26.2053 136.817 24.5313 136.817 22.8575C137.998 22.4182 139.18 21.9788 140.361 21.5396C141.083 21.9562 141.805 22.3727 142.527 22.7894C142.527 23.9558 142.527 25.1222 142.527 26.2887C143.201 26.4856 143.874 26.6824 144.547 26.8795C144.547 28.008 144.547 29.1366 144.547 30.2651C145.024 30.091 145.502 29.9167 145.979 29.7426C147.032 30.1744 148.084 30.606 149.137 31.0378C149.137 31.7725 149.137 32.5073 149.137 33.2418C149.572 33.2418 150.006 33.2418 150.441 33.2418C150.441 32.5297 150.441 31.8175 150.441 31.1053C151.187 30.6436 151.934 30.1817 152.681 29.7197C153.947 30.144 155.214 30.5682 156.481 30.9923C156.481 32.6738 156.481 34.3554 156.481 36.0368C158.317 36.0368 160.153 36.0368 161.989 36.0368C161.989 35.9079 161.989 35.7789 161.989 35.6499C160.961 35.6499 159.933 35.6499 158.904 35.6499C157.725 34.8514 157.66 32.4573 158.721 31.8785C158.08 30.1191 159.483 28.0123 160.704 28.9699C161.201 28.004 161.856 27.845 162.669 28.4928C163.847 28.5149 164.236 29.4451 164.266 30.7878C164.836 31.4412 165.05 32.388 164.909 33.628C164.003 33.4784 163.611 33.8419 163.733 34.7189C163.36 34.7189 162.987 34.7189 162.613 34.7189C162.613 34.7949 162.613 34.8712 162.613 34.9472C163.385 34.9472 164.156 34.9472 164.927 34.9472C164.947 34.6439 165.027 34.3407 165.166 34.0372C165.081 32.9455 165.311 32.1787 166.414 32.3102C166.957 31.4578 167.549 31.171 168.25 32.1285C169.359 32.2789 169.434 32.9676 169.04 33.9008C169.465 34.6139 169.416 35.2047 168.893 35.6732C167.883 35.6732 166.873 35.6732 165.863 35.6732C165.925 35.7782 165.986 35.8832 166.047 35.9883ZM160.846 34.7297C161.235 34.7297 161.623 34.7297 162.011 34.7297C162.011 34.8107 162.011 34.8915 162.011 34.9724C161.03 34.9724 160.05 34.9724 159.069 34.9724C158.218 34.0604 158.356 32.496 159.63 32.2705C158.45 30.511 159.661 28.3621 161.025 30.2844C161.217 29.0656 161.646 28.5218 162.496 29.1809C163.129 29.1735 163.719 29.2591 163.575 30.9463C164.06 31.4123 164.306 32.0744 164.315 32.9326C163.708 33.037 163.276 33.3574 163.099 33.9941C162.932 33.9941 162.765 33.9941 162.598 33.9941C162.598 33.0832 162.598 32.1723 162.598 31.2614C162.011 31.2614 161.424 31.2614 160.837 31.2614C160.84 32.4176 160.843 33.5737 160.846 34.7297ZM161.458 32.0184H162.028V33.9941H161.458V32.0184ZM142.868 33.9857H143.978V36.1107H142.868V33.9857ZM142.868 31.6042L143.978 31.1611V33.2448H142.868V31.6042ZM144.515 31.0477L145.994 30.5029L148.539 31.5629V33.2448H144.515V31.0477ZM142.285 30.9799V33.2196H138.618V36.0347H137.364V29.9888H141.212C139.984 29.2721 138.716 28.639 137.417 28.068V23.3296L140.299 22.3191L141.901 23.3101V26.8775L143.95 27.4522L143.918 30.3655L142.285 30.9799ZM137.43 29.2661V28.8606L138.253 29.2551L137.43 29.2661ZM126.957 26.0732H135.207V27.2822C132.487 26.6432 129.741 26.5679 126.957 27.2822V26.0732ZM126.957 28.0227C129.642 27.3557 132.393 27.3762 135.207 28.0227V29.2317H126.957C126.957 28.8287 126.957 28.4257 126.957 28.0227ZM135.834 29.2236V28.2225L136.799 28.6264V29.2088L135.834 29.2236ZM135.203 35.9786V29.9749H126.986V36.0231H127.992V31.4084H129.678V35.9925H129.924V31.5608H131.536V35.9316H131.845V31.5454L133.751 31.6523V35.9774L135.203 35.9786Z" stroke="#CAA44D" stroke-width="0.3" stroke-miterlimit="22.9256"/>
<path fill-rule="evenodd" clip-rule="evenodd" d="M60.2814 36.0017V36.8002H65.1606V30.5673L63.7878 30.004V21.7766L60.9268 21.0823V17.5528H61.7126V19.7656H63.8699V16.7986H62.2539V12.3021L65.1116 10.9566V17.5493H66.1841V36.7697H79.244L79.2596 28.0435L77.1475 26.7558L75.1907 27.563V25.4872L73.2495 24.6223V21.9841L70.4695 20.9896L70.2055 21.1049V16.8381H66.8196V10.7836H69.4757V3.01854L72.6437 1.76933L75.2061 2.94171V10.4569L72.9388 11.3603V20.8361L75.8896 21.8161V10.9181L76.9922 10.4761L80.3001 11.7831V36.8658H102.477V32.0221H97.4298V25.4872H99.7752V28.8318H103.522V36.8465H114.343V29.6387L112.743 28.6778V25.7675L109.442 24.5688L105.894 26.1407V28.14H104.168V21.2807L105.679 20.6386V23.5125L108.279 22.2646V18.7546L106.321 19.5489V14.0212L109.38 12.6601L112.072 13.8323V21.0926H114.305V25.4786L116.477 25.9324V36.8604H119.199V25.8566L117.058 25.2895V20.5251L118.786 19.7259L120.33 20.5317V36.6197H120.937L120.933 20.084L118.81 18.9498L116.495 20.0243V25.1283L114.927 24.7701V20.3825H112.683V13.3084L109.332 11.8162L105.666 13.5475V19.8453L103.496 20.7109V28.0832H100.385V24.7105H96.7431V32.0233H95.006V28.8115H91.8715V23.9652L87.6091 22.4582V17.2863L83.3745 19.2171V34.2157H86.3833V32.1079H89.6712V29.5461H91.2859V34.8908H97.4704V32.7994H101.822V36.1138H80.925V11.2968L77.0994 9.73826L75.904 10.1328V2.4548L72.7343 1L68.9272 2.40608V10.0288H66.1766V16.8351H65.6782V9.85586L61.652 11.7553V16.7877H60.3758V20.9502L56.68 22.1534V30.7493L54.6375 31.6868V36.7668H59.2867V30.9647L60.3955 30.5554V33.4444H63.5858V33.0584H63.781V30.772L64.5193 31.0368V36.0202L60.2814 36.0017ZM62.2535 17.5632H63.2482V19.0548H62.2535V17.5632ZM73.5729 11.8775L75.2414 11.1871V20.8694L73.5729 20.3234V11.8775ZM117.05 26.1105L118.604 26.502V36.0538H117.05V26.1105ZM106.312 20.3558L107.666 19.7386V21.8087L106.312 22.4261V20.3558ZM106.513 28.1435V26.7103L109.443 25.3807L112.094 26.3132V29.1488L113.676 30.112V36.0485H104.155V28.8687H105.871V35.016H110.252V28.1434L106.513 28.1435ZM91.8484 29.5479H94.4093V32.7919H96.7727V34.0968H94.4093H91.8484H91.8318V32.7919H91.8484V29.5479ZM85.8026 31.3924V33.5015H83.9235V19.7331L87.0295 18.2877V23.0984L91.3047 24.5676V28.8136H89.0616V31.3687L85.8026 31.3924ZM66.7973 17.5439V36.0343H78.6364V28.438L77.0852 27.4649L75.1412 28.33V34.2233H72.083V28.8435L74.5734 27.7892V25.8968L72.6512 25.0591V22.4898L70.4888 21.6966L70.2048 21.8654V34.2772H68.0204V22.1124L69.5933 21.3556V17.5439H66.7973ZM69.5714 22.1125V33.5473H68.61V22.653L69.5714 22.1125ZM60.9311 21.7655L62.9145 22.2601V29.7175L61.8496 29.2938L60.9311 29.5424V21.7655ZM60.9311 30.3313L61.8321 30.0194L62.9145 30.4446V32.7233H60.9311V30.3313ZM58.7456 35.9914H55.232V32.1906L57.2786 31.3171V22.6763L60.4023 21.6267V29.8317L58.7597 30.4049L58.7456 35.9914ZM74.5952 28.5242V33.5473H72.6946V29.3946L74.5952 28.5242ZM106.513 28.9033H109.638V34.239H106.513V28.9033Z" fill="#CAA44D" stroke="#CAA44D" stroke-width="0.3" stroke-miterlimit="22.9256"/>
<path d="M15.2698 57H12.8218V54.024L11.3338 52.424L8.18175 57H5.23775L9.66975 50.648L5.39775 45.8H8.32575L12.8218 51.032V45.8H15.2698V51.032L19.7658 45.8H22.6938L18.4218 50.648L22.8538 57H19.9098L16.7418 52.424L15.2698 54.024V57ZM33.992 45.8V57H31.56V49.656L26.664 57H24.344V45.8H26.776V53.144L31.704 45.8H33.992ZM38.1758 45.8H46.1758V57H43.7118V48.024H40.4798V48.872C40.4798 55.464 39.4078 57.144 36.8478 57.144C36.4478 57.144 35.8558 57.08 35.5518 57L35.7118 54.968C35.8238 54.984 35.9358 55 36.0958 55C37.4238 55 38.1758 54.152 38.1758 48.12V45.8ZM58.5076 45.8V57H56.0756V49.656L51.1796 57H48.8596V45.8H51.2916V53.144L56.2196 45.8H58.5076ZM75.5394 59.336V57H61.2034V45.8H63.6674V54.776H67.6514V45.8H70.1154V54.776H74.1154V45.8H76.5794V54.776H77.9074L77.5874 59.336H75.5394ZM79.6409 57V45.8H82.1049V50.232H86.6489V45.8H89.1129V57H86.6489V52.504H82.1049V57H79.6409ZM91.7971 57V45.8H94.2611V49.608H96.6451C99.2371 49.608 100.741 51.048 100.741 53.24C100.741 55.544 99.1091 57 96.4851 57H91.7971ZM96.4371 51.72H94.2611V54.776H96.4531C97.6691 54.776 98.2931 54.248 98.2931 53.208C98.2931 52.264 97.6691 51.72 96.4371 51.72ZM101.989 57V45.8H104.453V57H101.989ZM116.789 45.8V57H114.357V49.656L109.461 57H107.141V45.8H109.573V53.144L114.501 45.8H116.789ZM112.005 44.952C110.533 44.952 109.541 44.056 109.317 42.52L110.741 42.264C110.949 42.92 111.333 43.336 112.005 43.336C112.677 43.336 113.061 42.92 113.269 42.264L114.693 42.52C114.469 44.056 113.477 44.952 112.005 44.952ZM131.626 48.584V54.04C133.434 54.04 134.634 52.984 134.634 51.304C134.634 49.656 133.434 48.584 131.626 48.584ZM131.626 57.448H129.162V56.232C125.706 56.232 123.61 54.088 123.61 51.256C123.61 48.456 125.722 46.392 129.162 46.392V45.368H131.626V46.392C135.05 46.392 137.178 48.456 137.178 51.272C137.178 54.088 135.082 56.232 131.626 56.232V57.448ZM129.162 54.04V48.584C127.354 48.584 126.138 49.656 126.138 51.304C126.138 52.984 127.354 54.04 129.162 54.04ZM144.628 57.192C141.172 57.192 138.692 54.616 138.692 51.4C138.692 48.216 141.204 45.608 144.66 45.608C148.116 45.608 150.596 48.184 150.596 51.4C150.596 54.584 148.084 57.192 144.628 57.192ZM144.66 54.92C146.644 54.92 148.02 53.352 148.02 51.4C148.02 49.48 146.612 47.88 144.628 47.88C142.644 47.88 141.268 49.448 141.268 51.4C141.268 53.32 142.676 54.92 144.66 54.92ZM152.782 57V45.8H155.246V50.232H159.79V45.8H162.254V57H159.79V52.504H155.246V57H152.782ZM163.754 59.336V54.776H164.81C165.642 52.84 166.042 50.936 166.042 47.112V45.8H174.186V54.776H175.53L175.21 59.336H173.146V57H166.138L165.978 59.336H163.754ZM171.722 48.024H168.41V49.16C168.41 51.528 168.042 53.224 167.402 54.776H171.722V48.024Z" fill="#CAA44D"/>
</svg>
